<?xml version="1.0" standalone="no"?>
<!DOCTYPE svg PUBLIC "-//W3C//DTD SVG 20010904//EN"
 "http://www.w3.org/TR/2001/REC-SVG-20010904/DTD/svg10.dtd">
<svg version="1.0" xmlns="http://www.w3.org/2000/svg"
 width="143.000000pt" height="143.000000pt" viewBox="0 0 143.000000 143.000000"
 preserveAspectRatio="xMidYMid meet">
<metadata>
Created by potrace 1.11, written by Peter Selinger 2001-2013
</metadata>
<g transform="translate(0.000000,143.000000) scale(0.100000,-0.100000)"
fill="#000000" stroke="none">
<path d="M642 977 l-262 -262 140 -140 140 -140 -50 -50 -50 -50 -192 193
-193 192 215 215 215 215 -43 42 -42 43 -250 -250 c-138 -137 -250 -254 -250
-260 0 -6 121 -132 270 -280 l270 -270 90 90 90 90 83 -83 82 -82 263 263 262
262 -263 263 -262 262 -263 -263z"/>
</g>
</svg>
