<?xml version="1.0" standalone="no"?>
<!DOCTYPE svg PUBLIC "-//W3C//DTD SVG 20010904//EN"
 "http://www.w3.org/TR/2001/REC-SVG-20010904/DTD/svg10.dtd">
<svg version="1.0" xmlns="http://www.w3.org/2000/svg"
 width="260.000000pt" height="260.000000pt" viewBox="0 0 260.000000 260.000000"
 preserveAspectRatio="xMidYMid meet">
<metadata>
Created by potrace 1.11, written by Peter Selinger 2001-2013
</metadata>
<g transform="translate(0.000000,260.000000) scale(0.100000,-0.100000)"
fill="#000000" stroke="none">
<path d="M1230 2440 l0 -160 -439 0 -439 0 -116 -205 -117 -205 117 -195 118
-195 438 0 438 0 0 -50 0 -50 -400 0 -400 0 0 -395 0 -395 400 0 400 0 0 -295
0 -295 55 0 55 0 0 295 0 295 454 0 453 0 117 195 117 196 -113 197 -114 197
-457 3 -457 2 0 50 0 50 415 0 415 0 0 400 0 400 -415 0 -415 0 0 160 0 160
-55 0 -55 0 0 -160z m-416 -406 c43 -6 46 -9 46 -35 l0 -29 -72 0 c-98 0 -108
-10 -108 -111 0 -91 11 -109 71 -109 37 0 39 2 39 30 0 20 -5 30 -15 30 -11 0
-15 11 -15 36 l0 35 48 -3 47 -3 3 -92 3 -91 -56 -7 c-155 -20 -211 36 -203
197 8 135 60 172 212 152z m296 -7 c0 -2 16 -72 35 -156 19 -83 35 -159 35
-167 0 -9 -11 -14 -35 -14 -31 0 -36 3 -41 30 -6 29 -8 30 -64 30 -56 0 -58
-1 -63 -30 -6 -27 -11 -30 -42 -30 -19 0 -35 5 -35 10 0 6 16 81 35 167 19 86
35 158 35 160 0 2 32 3 70 3 39 0 70 -1 70 -3z m267 -113 l28 -116 29 116 28
116 64 0 64 0 0 -170 0 -170 -40 0 -40 0 -1 128 -1 127 -32 -120 -33 -120 -38
0 -38 0 -31 115 -31 115 -3 -122 -3 -123 -39 0 -40 0 0 170 0 170 64 0 64 0
29 -116z m503 86 l0 -30 -75 0 -75 0 0 -40 0 -40 60 0 60 0 0 -30 0 -30 -60 0
-60 0 0 -40 0 -40 75 0 75 0 0 -30 0 -30 -115 0 -115 0 0 170 0 170 115 0 115
0 0 -30z m-740 -885 c52 -49 64 -177 24 -260 -21 -45 -72 -69 -136 -63 -92 9
-127 58 -127 178 -1 128 49 184 157 177 41 -3 59 -10 82 -32z m268 -112 l41
-138 0 138 1 137 35 0 35 0 0 -170 0 -170 -59 0 -60 0 -15 53 c-8 28 -26 88
-40 132 l-25 80 0 -132 -1 -133 -40 0 -40 0 0 170 0 170 63 0 64 0 41 -137z
m262 80 c0 -32 -3 -82 -6 -110 -6 -49 -9 -53 -34 -53 -26 0 -27 3 -34 61 -3
34 -6 84 -6 110 l0 49 40 0 40 0 0 -57z m0 -243 l0 -40 -40 0 -40 0 0 40 0 40
40 0 40 0 0 -40z"/>
<path d="M1016 1899 c-9 -39 -16 -75 -16 -80 0 -5 18 -9 40 -9 48 0 47 -6 15
138 -9 40 -23 23 -39 -49z"/>
<path d="M996 1058 c-24 -34 -22 -159 3 -182 28 -26 82 -18 98 14 16 32 16
128 0 160 -18 36 -78 41 -101 8z"/>
</g>
</svg>
