<svg style="display: none;"><symbol viewBox="0 0 32 32" id="shape-api_32"><title>api_32</title> <g> <path d="M14.16,15.715c-0.107,0-0.179-0.03-0.215-0.09c-0.037-0.06-0.055-0.16-0.055-0.3v-2.66c0-0.274-0.06-0.505-0.18-0.695
		c-0.12-0.19-0.278-0.345-0.475-0.465c-0.197-0.12-0.419-0.207-0.665-0.26c-0.247-0.053-0.497-0.08-0.75-0.08
		c-0.287,0-0.566,0.027-0.84,0.08c-0.273,0.053-0.519,0.146-0.735,0.28c-0.217,0.134-0.395,0.31-0.535,0.53
		c-0.14,0.22-0.22,0.497-0.24,0.83h1.14c0.027-0.28,0.143-0.487,0.35-0.62c0.207-0.133,0.47-0.2,0.79-0.2
		c0.113,0,0.233,0.009,0.36,0.025c0.126,0.017,0.242,0.05,0.345,0.1c0.103,0.05,0.19,0.122,0.26,0.215
		c0.07,0.093,0.105,0.213,0.105,0.36c0,0.167-0.042,0.292-0.125,0.375c-0.083,0.083-0.197,0.145-0.34,0.185
		c-0.144,0.04-0.309,0.068-0.495,0.085c-0.187,0.017-0.383,0.045-0.59,0.085c-0.24,0.027-0.479,0.065-0.715,0.115
		c-0.237,0.05-0.45,0.132-0.64,0.245c-0.19,0.114-0.344,0.27-0.46,0.47c-0.117,0.2-0.175,0.46-0.175,0.78
		c0,0.253,0.048,0.475,0.145,0.665c0.097,0.19,0.227,0.347,0.39,0.47c0.163,0.124,0.352,0.217,0.565,0.28
		c0.213,0.063,0.436,0.095,0.67,0.095c0.307,0,0.625-0.05,0.955-0.15c0.33-0.1,0.608-0.26,0.835-0.48
		c0.047,0.234,0.147,0.397,0.3,0.49c0.153,0.093,0.346,0.14,0.58,0.14c0.047,0,0.104-0.003,0.17-0.01
		c0.066-0.007,0.133-0.017,0.2-0.03c0.067-0.014,0.132-0.028,0.195-0.045c0.063-0.017,0.115-0.032,0.155-0.045v-0.79
		c-0.06,0.013-0.113,0.02-0.16,0.02C14.233,15.715,14.193,15.715,14.16,15.715z M12.75,14.734c0,0.18-0.043,0.332-0.13,0.455
		c-0.087,0.123-0.195,0.225-0.325,0.305c-0.13,0.08-0.269,0.137-0.415,0.17c-0.146,0.034-0.283,0.05-0.41,0.05
		c-0.1,0-0.211-0.01-0.335-0.03c-0.123-0.02-0.236-0.055-0.34-0.105s-0.192-0.118-0.265-0.205c-0.073-0.086-0.11-0.193-0.11-0.32
		c0-0.146,0.025-0.271,0.075-0.375c0.05-0.104,0.118-0.186,0.205-0.25c0.086-0.063,0.186-0.113,0.3-0.15
		c0.113-0.037,0.23-0.065,0.35-0.085c0.253-0.047,0.506-0.082,0.76-0.105c0.253-0.023,0.467-0.092,0.64-0.205V14.734z"/> <path d="M19.67,11.97c-0.2-0.25-0.452-0.447-0.755-0.59c-0.303-0.143-0.659-0.215-1.065-0.215c-0.333,0-0.644,0.065-0.93,0.195
		c-0.287,0.13-0.51,0.345-0.67,0.645h-0.02v-0.7h-1.08v7.08h1.14v-2.58h0.02c0.086,0.14,0.195,0.262,0.325,0.365
		c0.13,0.104,0.271,0.189,0.425,0.255c0.153,0.066,0.313,0.115,0.48,0.145c0.166,0.03,0.333,0.045,0.5,0.045
		c0.38,0,0.71-0.075,0.99-0.225c0.28-0.15,0.512-0.35,0.695-0.6c0.183-0.25,0.32-0.538,0.41-0.865
		c0.09-0.327,0.135-0.664,0.135-1.01c0-0.38-0.05-0.736-0.15-1.07S19.87,12.22,19.67,11.97z M19.055,14.56
		c-0.05,0.217-0.134,0.41-0.25,0.58c-0.117,0.17-0.265,0.309-0.445,0.415c-0.18,0.106-0.4,0.16-0.66,0.16
		c-0.233,0-0.438-0.047-0.615-0.14c-0.177-0.093-0.329-0.22-0.455-0.38c-0.126-0.16-0.222-0.352-0.285-0.575
		c-0.063-0.223-0.095-0.465-0.095-0.725c0-0.553,0.122-0.997,0.365-1.33c0.243-0.333,0.605-0.5,1.085-0.5
		c0.233,0,0.44,0.052,0.62,0.155c0.18,0.104,0.33,0.24,0.45,0.41c0.12,0.17,0.21,0.365,0.27,0.585c0.06,0.22,0.09,0.446,0.09,0.68
		C19.13,14.121,19.105,14.343,19.055,14.56z"/> <rect x="21.26" y="9.334" width="1.14" height="1.08"/> <rect x="21.26" y="11.305" width="1.14" height="5.17"/> <path d="M3,3v22v4h26v-4V3H3z M5,5h22v18H5V5z"/> </g> </symbol><symbol viewBox="0 0 32 32" id="shape-catalog_32"><title>catalog_32</title> <path d="M21,3c-2,0-4,1-5,2c-1-1-3-2-5-2H3v24h8c2,0,4,1,5,2c1-1,3-2,5-2h8V3H21z M16,26.484C14.657,25.649,12.869,25,11,25H5V5h6
	c1.359,0,2.891,0.719,3.586,1.414L16,7.829V26.484z M26,20h-7v-1h7V20z M26,17h-7v-1h7V17z M26,14h-7v-1h7V14z M26,11h-7v-1h7V11z"/> </symbol><symbol viewBox="0 0 32 32" id="shape-group_32"><title>group_32</title> <g> <path d="M8,23c2.762,0,5-2.238,5-5s-2.238-5-5-5s-5,2.238-5,5S5.238,23,8,23z M8,15c1.654,0,3,1.346,3,3s-1.346,3-3,3s-3-1.346-3-3
		S6.346,15,8,15z"/> <path d="M19,18c0,2.762,2.238,5,5,5s5-2.238,5-5s-2.238-5-5-5S19,15.238,19,18z M24,15c1.654,0,3,1.346,3,3s-1.346,3-3,3
		s-3-1.346-3-3S22.346,15,24,15z"/> <path d="M21,7c0-2.762-2.238-5-5-5s-5,2.238-5,5s2.238,5,5,5S21,9.762,21,7z M16,10c-1.654,0-3-1.346-3-3s1.346-3,3-3s3,1.346,3,3
		S17.654,10,16,10z"/> <path d="M12,25H4c-1.105,0-2,0.896-2,2v3h12v-3C14,25.896,13.104,25,12,25z"/> <path d="M28,25h-8c-1.104,0-2,0.896-2,2v3h12v-3C30,25.896,29.104,25,28,25z"/> </g> </symbol><symbol viewBox="0 0 32 32" id="shape-octo-32"><title>octo-32</title> <style type="text/css"> .st0{fill-rule:evenodd;clip-rule:evenodd;} </style> <path id="octo-32-XMLID_2_" class="st0" d="M16,0C7.2,0,0,7.3,0,16.4C0,23.7,4.6,29.8,10.9,32c0.8,0.2,1.1-0.4,1.1-0.8c0-0.4,0-1.4,0-2.8
	c-4.5,1-5.4-2.2-5.4-2.2c-0.7-1.9-1.8-2.4-1.8-2.4c-1.5-1,0.1-1,0.1-1c1.6,0.1,2.5,1.7,2.5,1.7c1.4,2.5,3.7,1.8,4.7,1.4
	c0.1-1.1,0.6-1.8,1-2.2c-3.6-0.4-7.3-1.8-7.3-8.1c0-1.8,0.6-3.3,1.6-4.4c-0.2-0.4-0.7-2.1,0.2-4.3c0,0,1.3-0.4,4.4,1.7
	c1.3-0.4,2.6-0.5,4-0.6c1.4,0,2.7,0.2,4,0.6c3.1-2.1,4.4-1.7,4.4-1.7c0.9,2.3,0.3,3.9,0.2,4.3c1,1.1,1.6,2.6,1.6,4.4
	c0,6.3-3.7,7.7-7.3,8.1c0.6,0.5,1.1,1.5,1.1,3c0,2.2,0,4,0,4.5c0,0.4,0.3,0.9,1.1,0.8C27.4,29.8,32,23.7,32,16.4C32,7.3,24.8,0,16,0
	z"/> </symbol></svg>