<?xml version="1.0" encoding="UTF-8" standalone="no"?>
<!DOCTYPE svg PUBLIC "-//W3C//DTD SVG 20010904//EN"
              "http://www.w3.org/TR/2001/REC-SVG-20010904/DTD/svg10.dtd">

<svg xmlns="http://www.w3.org/2000/svg"
     width="8.25in" height="3.63889in"
     viewBox="0 0 594 262">
  <path id="Selection"
        fill="none" stroke="black" stroke-width="1"
        d="M 86.00,0.00
           C 86.00,29.72 93.42,60.99 105.70,88.00
             115.55,109.69 132.29,135.09 149.00,152.00
             168.47,171.69 189.01,187.65 214.00,199.74
             302.58,242.62 405.99,225.30 476.00,156.00
             496.48,135.72 513.87,109.49 525.15,83.00
             535.39,58.97 543.00,26.14 543.00,0.00
             543.00,0.00 559.00,0.00 559.00,0.00
             556.69,28.52 554.36,48.49 544.92,76.00
             526.73,129.04 486.67,177.71 438.00,205.57
             406.85,223.40 371.70,234.43 336.00,237.96
             336.00,237.96 326.00,237.96 326.00,237.96
             326.00,237.96 316.00,239.00 316.00,239.00
             316.00,239.00 312.00,239.00 312.00,239.00
             312.00,239.00 302.00,237.96 302.00,237.96
             302.00,237.96 292.00,237.96 292.00,237.96
             292.00,237.96 264.00,233.55 264.00,233.55
             206.93,222.07 151.86,187.15 117.74,140.00
             102.93,119.53 90.67,96.99 82.67,73.00
             75.51,51.52 70.02,22.63 70.00,0.00
             70.00,0.00 86.00,0.00 86.00,0.00 Z" />
</svg>
